# xmcd
#
# Track frame offsets:
#	150
#	13590
#	26735
#	41472
#	56060
#	69097
#	82575
#	95745
#	108667
#	121497
#	134900
#	149172
#	162207
#	175470
#	189125
#	201890
#	215565
#	228625
#	241845
#	255827
#
# Disc length: 3583 seconds
# Revision: 3
# Processed by: cddbd v1.5.2PL0 Copyright (c) Steve Scherf et al.
# Submitted via: dBpowerAMP V12.0
#
DISCID=1d0dfd14
DTITLE=Blind Willie McTell - The Definitive
DYEAR=1994
DGENRE=Blues
TTITLE0=Lord Have Mercy If You Please
TTITLE1=Don't You See How This World Made A Change
TTITLE2=Savannah Mama
TTITLE3=Broke Down Engine
TTITLE4=Broke Down Engine No. 2
TTITLE5=My Baby's Gone
TTITLE6=Love Makin' Mama #1
TTITLE7=Love Makin' Mama #2
TTITLE8=Death Room Blues
TTITLE9=Death Room Blues #2
TTITLE10=Death Cell Blues
TTITLE11=Lord Send Me An Angel #1
TTITLE12=Lord Send Me An Angel #2
TTITLE13=B and O Blues No. 2 #1
TTITLE14=B and O Blues No. 2 #2
TTITLE15=Weary Hearted Blues
TTITLE16=Bell St. Lightnin'
TTITLE17=Southern Can Mama
TTITLE18=Runnin' Me Crazy
TTITLE19=East St. Louis Blues (Fare You Well)
EXTD=
EXTT0=
EXTT1=
EXTT2=
EXTT3=
EXTT4=
EXTT5=
EXTT6=
EXTT7=
EXTT8=
EXTT9=
EXTT10=
EXTT11=
EXTT12=
EXTT13=
EXTT14=
EXTT15=
EXTT16=
EXTT17=
EXTT18=
EXTT19=
PLAYORDER=
